<?xml version="1.0" encoding="UTF-8"?>
<!DOCTYPE svg PUBLIC "-//W3C//DTD SVG 1.1//EN" "http://www.w3.org/Graphics/SVG/1.1/DTD/svg11.dtd">
<svg xmlns="http://www.w3.org/2000/svg" version="1.1" width="1103px" height="209px" style="shape-rendering:geometricPrecision; text-rendering:geometricPrecision; image-rendering:optimizeQuality; fill-rule:evenodd; clip-rule:evenodd" xmlns:xlink="http://www.w3.org/1999/xlink">
<g><path style="opacity:0.306" fill="#949494" d="M 26.5,47.5 C 26.5,88.5 26.5,129.5 26.5,170.5C 35.1667,170.5 43.8333,170.5 52.5,170.5C 43.6822,171.493 34.6822,171.827 25.5,171.5C 25.168,129.997 25.5014,88.6633 26.5,47.5 Z"/></g>
<g><path style="opacity:0.998" fill="#060606" d="M 26.5,47.5 C 36.1724,47.3335 45.8391,47.5002 55.5,48C 61,49.5 64.5,53 66,58.5C 66.6667,92.1667 66.6667,125.833 66,159.5C 64.0328,166.303 59.5328,169.969 52.5,170.5C 43.8333,170.5 35.1667,170.5 26.5,170.5C 26.5,129.5 26.5,88.5 26.5,47.5 Z M 39.5,59.5 C 43.9113,59.021 48.078,59.6876 52,61.5C 52.3333,62.5 52.6667,63.5 53,64.5C 53.6667,94.1667 53.6667,123.833 53,153.5C 52.7767,155.881 51.61,157.547 49.5,158.5C 46.1667,158.5 42.8333,158.5 39.5,158.5C 39.5,125.5 39.5,92.5 39.5,59.5 Z"/></g>
<g><path style="opacity:0.989" fill="#000000" d="M 122.5,50.5 C 122.5,90.5 122.5,130.5 122.5,170.5C 119.167,170.5 115.833,170.5 112.5,170.5C 110.506,129.847 109.839,88.8469 110.5,47.5C 114.182,47.3347 117.848,47.5014 121.5,48C 122.252,48.6708 122.586,49.5041 122.5,50.5 Z"/></g>
<g><path style="opacity:0.99" fill="#0f0f0f" d="M 177.5,46.5 C 198.819,43.3194 207.985,52.3194 205,73.5C 204.535,74.9308 203.701,76.0975 202.5,77C 199.5,78.5 196.5,80 193.5,81.5C 192.888,74.448 192.054,67.448 191,60.5C 187.057,57.6342 183.39,57.9676 180,61.5C 179.333,93.1667 179.333,124.833 180,156.5C 184.324,161.932 188.324,161.599 192,155.5C 192.5,142.838 192.667,130.171 192.5,117.5C 190.61,117.703 189.11,117.037 188,115.5C 186.294,111.921 184.461,108.421 182.5,105C 188.833,104.333 195.167,104.333 201.5,105C 203.333,105.5 204.5,106.667 205,108.5C 205.667,125.5 205.667,142.5 205,159.5C 200.272,170.844 191.772,175.01 179.5,172C 173.499,170.664 169.332,167.164 167,161.5C 166.333,126.5 166.333,91.5 167,56.5C 169.106,51.5573 172.606,48.224 177.5,46.5 Z"/></g>
<g><path style="opacity:0.989" fill="#000000" d="M 260.5,50.5 C 260.5,90.5 260.5,130.5 260.5,170.5C 257.167,170.5 253.833,170.5 250.5,170.5C 248.506,129.847 247.839,88.8469 248.5,47.5C 252.182,47.3347 255.848,47.5014 259.5,48C 260.252,48.6708 260.586,49.5041 260.5,50.5 Z"/></g>
<g><path style="opacity:0.996" fill="#0e0e0e" d="M 294.5,60.5 C 289.025,59.5111 283.358,59.1778 277.5,59.5C 277.5,56.5 277.5,53.5 277.5,50.5C 277.414,49.5041 277.748,48.6708 278.5,48C 296.5,47.3333 314.5,47.3333 332.5,48C 330.684,51.7934 328.684,55.46 326.5,59C 320.694,60.0974 314.861,60.9307 309,61.5C 308.5,98.1652 308.333,134.832 308.5,171.5C 304.486,171.666 300.486,171.499 296.5,171C 296,170.5 295.5,170 295,169.5C 294.5,133.168 294.333,96.8349 294.5,60.5 Z"/></g>
<g><path style="opacity:0.994" fill="#111111" d="M 412.5,167.5 C 412.5,168.5 412.5,169.5 412.5,170.5C 408.167,170.5 403.833,170.5 399.5,170.5C 395.526,145.386 392.193,120.052 389.5,94.5C 389.752,91.6802 389.252,89.0135 388,86.5C 387.51,87.7932 387.343,89.1266 387.5,90.5C 384.413,117.529 381.08,144.529 377.5,171.5C 372.309,171.942 367.309,171.442 362.5,170C 369.155,129.252 375.488,88.4184 381.5,47.5C 385.182,47.3347 388.848,47.5014 392.5,48C 393.667,48.5 394.5,49.3333 395,50.5C 401.441,89.4198 407.274,128.42 412.5,167.5 Z"/></g>
<g><path style="opacity:0.99" fill="#0f0f0f" d="M 460.5,47.5 C 464.997,46.9445 469.164,47.6112 473,49.5C 473.5,85.4985 473.667,121.498 473.5,157.5C 482.833,157.5 492.167,157.5 501.5,157.5C 501.006,163.327 498.339,167.827 493.5,171C 482.505,171.5 471.505,171.667 460.5,171.5C 460.5,130.167 460.5,88.8333 460.5,47.5 Z"/></g>
<g><path style="opacity:0.998" fill="#161616" d="M 588.5,47.5 C 597.839,47.3335 607.173,47.5002 616.5,48C 621.667,49.8333 625.167,53.3333 627,58.5C 627.937,74.2209 627.603,89.8876 626,105.5C 620.717,114.382 612.884,117.716 602.5,115.5C 602.667,133.836 602.5,152.17 602,170.5C 597.52,172.019 593.187,171.685 589,169.5C 588.5,128.835 588.333,88.168 588.5,47.5 Z M 602.5,59.5 C 606.257,59.0708 609.757,59.7375 613,61.5C 614.129,68.0644 614.629,74.7311 614.5,81.5C 614.333,87.5 614.167,93.5 614,99.5C 610.673,102.154 606.839,103.154 602.5,102.5C 602.5,88.1667 602.5,73.8333 602.5,59.5 Z"/></g>
<g><path style="opacity:0.998" fill="#0c0c0c" d="M 666.5,47.5 C 676.172,47.3335 685.839,47.5002 695.5,48C 700,49.8333 703.167,53 705,57.5C 705.667,73.8333 705.667,90.1667 705,106.5C 704.654,108.848 703.487,110.681 701.5,112C 703.041,113.579 704.208,115.413 705,117.5C 705.5,135.497 705.667,153.497 705.5,171.5C 701.167,171.5 696.833,171.5 692.5,171.5C 692.667,155.163 692.5,138.83 692,122.5C 691.535,121.069 690.701,119.903 689.5,119C 686.183,118.502 682.85,118.335 679.5,118.5C 679.5,136.167 679.5,153.833 679.5,171.5C 675.167,171.5 670.833,171.5 666.5,171.5C 666.5,130.167 666.5,88.8333 666.5,47.5 Z M 679.5,60.5 C 682.85,60.335 686.183,60.5017 689.5,61C 690.333,61.8333 691.167,62.6667 692,63.5C 692.167,69.8333 692.333,76.1667 692.5,82.5C 692.631,89.6012 692.131,96.6012 691,103.5C 690.5,104 690,104.5 689.5,105C 686.183,105.498 682.85,105.665 679.5,105.5C 679.5,90.5 679.5,75.5 679.5,60.5 Z"/></g>
<g><path style="opacity:0.998" fill="#181818" d="M 759.5,46.5 C 765.509,46.3338 771.509,46.5005 777.5,47C 783.767,48.9337 787.601,53.1004 789,59.5C 789.667,92.8333 789.667,126.167 789,159.5C 786.737,166.097 782.237,170.264 775.5,172C 765.472,174.207 756.972,171.707 750,164.5C 749.333,162.5 748.667,160.5 748,158.5C 747.333,125.833 747.333,93.1667 748,60.5C 749.171,53.5082 753.004,48.8415 759.5,46.5 Z M 764.5,58.5 C 767.187,58.3359 769.854,58.5026 772.5,59C 773.667,59.5 774.5,60.3333 775,61.5C 775.667,93.5 775.667,125.5 775,157.5C 770.199,161.749 765.866,161.416 762,156.5C 761.333,124.833 761.333,93.1667 762,61.5C 763.045,60.6266 763.878,59.6266 764.5,58.5 Z"/></g>
<g><path style="opacity:0.989" fill="#0d0d0d" d="M 852.5,47.5 C 856.182,47.3347 859.848,47.5014 863.5,48C 864.126,48.7504 864.626,49.5838 865,50.5C 865.667,87.1667 865.667,123.833 865,160.5C 861.558,168.921 855.225,172.921 846,172.5C 830.904,172.071 824.571,164.404 827,149.5C 830.54,146.396 834.54,144.063 839,142.5C 839.333,146.833 839.667,151.167 840,155.5C 843.853,162.053 847.853,162.053 852,155.5C 852.5,119.502 852.667,83.5015 852.5,47.5 Z"/></g>
<g><path style="opacity:0.996" fill="#0f0f0f" d="M 893.5,47.5 C 905.833,47.5 918.167,47.5 930.5,47.5C 929.337,51.9822 927.004,55.8155 923.5,59C 917.694,60.0974 911.861,60.9307 906,61.5C 905.5,74.1623 905.333,86.8289 905.5,99.5C 912.167,99.5 918.833,99.5 925.5,99.5C 924.72,104.468 922.387,108.635 918.5,112C 914.833,112.333 911.167,112.667 907.5,113C 907,113.5 906.5,114 906,114.5C 905.5,128.829 905.333,143.163 905.5,157.5C 914.506,157.334 923.506,157.5 932.5,158C 932.099,163.714 929.099,168.047 923.5,171C 913.172,171.5 902.839,171.666 892.5,171.5C 892.173,130.094 892.506,88.761 893.5,47.5 Z"/></g>
<g><path style="opacity:0.996" fill="#0e0e0e" d="M 982.5,46.5 C 988.176,46.3339 993.843,46.5006 999.5,47C 1004.33,49.1667 1007.83,52.6667 1010,57.5C 1010.67,66.8333 1010.67,76.1667 1010,85.5C 1006.46,88.604 1002.46,90.9373 998,92.5C 997.667,82.5 997.333,72.5 997,62.5C 994.369,58.3715 990.869,57.5381 986.5,60C 985.874,60.7504 985.374,61.5838 985,62.5C 984.333,93.5 984.333,124.5 985,155.5C 988.577,161.565 992.577,161.899 997,156.5C 997.333,148.833 997.667,141.167 998,133.5C 1001.08,130.039 1004.91,127.705 1009.5,126.5C 1010.67,137.819 1010.83,149.152 1010,160.5C 1006.58,168.888 1000.25,172.888 991,172.5C 981.667,173.011 975.333,169.011 972,160.5C 971.333,126.167 971.333,91.8333 972,57.5C 974.357,52.6455 977.857,48.9788 982.5,46.5 Z"/></g>
<g><path style="opacity:0.996" fill="#060606" d="M 1058.5,62.5 C 1057.5,98.3295 1057.17,134.329 1057.5,170.5C 1053.83,170.5 1050.17,170.5 1046.5,170.5C 1045.88,170.389 1045.38,170.056 1045,169.5C 1044.5,133.168 1044.33,96.8349 1044.5,60.5C 1039.02,59.5111 1033.36,59.1778 1027.5,59.5C 1027.5,56.1667 1027.5,52.8333 1027.5,49.5C 1027.61,48.8826 1027.94,48.3826 1028.5,48C 1046.5,47.3333 1064.5,47.3333 1082.5,48C 1080.5,51.6667 1078.5,55.3333 1076.5,59C 1070.94,60.2392 1065.28,60.9059 1059.5,61C 1058.94,61.3826 1058.61,61.8826 1058.5,62.5 Z"/></g>
<g><path style="opacity:0.455" fill="#717171" d="M 122.5,50.5 C 123.499,90.6632 123.832,130.997 123.5,171.5C 119.629,171.815 115.962,171.482 112.5,170.5C 115.833,170.5 119.167,170.5 122.5,170.5C 122.5,130.5 122.5,90.5 122.5,50.5 Z"/></g>
<g><path style="opacity:0.463" fill="#6f6f6f" d="M 260.5,50.5 C 261.499,90.6632 261.832,130.997 261.5,171.5C 257.629,171.815 253.962,171.482 250.5,170.5C 253.833,170.5 257.167,170.5 260.5,170.5C 260.5,130.5 260.5,90.5 260.5,50.5 Z"/></g>
<g><path style="opacity:0.118" fill="#c6c6c6" d="M 39.5,59.5 C 39.5,92.5 39.5,125.5 39.5,158.5C 42.8333,158.5 46.1667,158.5 49.5,158.5C 46.0381,159.482 42.3714,159.815 38.5,159.5C 38.1684,125.996 38.5017,92.6625 39.5,59.5 Z"/></g>
<g><path style="opacity:0.439" fill="#808080" d="M 277.5,50.5 C 277.5,53.5 277.5,56.5 277.5,59.5C 283.358,59.1778 289.025,59.5111 294.5,60.5C 288.5,60.5 282.5,60.5 276.5,60.5C 276.187,56.9581 276.521,53.6248 277.5,50.5 Z"/></g>
<g><path style="opacity:0.439" fill="#777777" d="M 1027.5,49.5 C 1027.5,52.8333 1027.5,56.1667 1027.5,59.5C 1033.36,59.1778 1039.02,59.5111 1044.5,60.5C 1038.5,60.5 1032.5,60.5 1026.5,60.5C 1026.19,56.6286 1026.52,52.9619 1027.5,49.5 Z"/></g>
<g><path style="opacity:0.463" fill="#6f6f6f" d="M 1058.5,62.5 C 1058.5,98.8333 1058.5,135.167 1058.5,171.5C 1054.3,171.817 1050.3,171.483 1046.5,170.5C 1050.17,170.5 1053.83,170.5 1057.5,170.5C 1057.17,134.329 1057.5,98.3295 1058.5,62.5 Z"/></g>
<g><path style="opacity:0.306" fill="#8e8e8e" d="M 389.5,94.5 C 388.833,93.1667 388.167,91.8333 387.5,90.5C 387.343,89.1266 387.51,87.7932 388,86.5C 389.252,89.0135 389.752,91.6802 389.5,94.5 Z"/></g>
<g><path style="opacity:0.22" fill="#a7a7a7" d="M 412.5,167.5 C 413.434,168.568 413.768,169.901 413.5,171.5C 408.637,171.819 403.97,171.486 399.5,170.5C 403.833,170.5 408.167,170.5 412.5,170.5C 412.5,169.5 412.5,168.5 412.5,167.5 Z"/></g>
</svg>
