<?xml version="1.0" encoding="UTF-8"?>
<!DOCTYPE svg PUBLIC "-//W3C//DTD SVG 1.1//EN" "http://www.w3.org/Graphics/SVG/1.1/DTD/svg11.dtd">
<svg xmlns="http://www.w3.org/2000/svg" version="1.1" width="138px" height="84px" style="shape-rendering:geometricPrecision; text-rendering:geometricPrecision; image-rendering:optimizeQuality; fill-rule:evenodd; clip-rule:evenodd" xmlns:xlink="http://www.w3.org/1999/xlink">
<g><path style="opacity:0.247" fill="#2f302f" d="M 41.5,-0.5 C 44.5,-0.5 47.5,-0.5 50.5,-0.5C 50.5,-0.166667 50.5,0.166667 50.5,0.5C 47.8333,0.5 45.1667,0.5 42.5,0.5C 42.5,17.5 42.5,34.5 42.5,51.5C 41.5033,34.3414 41.17,17.008 41.5,-0.5 Z"/></g>
<g><path style="opacity:0.994" fill="#323232" d="M 50.5,0.5 C 51.7498,0.57735 52.5831,1.24402 53,2.5C 53.6667,18.1667 53.6667,33.8333 53,49.5C 49.8506,51.3625 46.3506,52.0291 42.5,51.5C 42.5,34.5 42.5,17.5 42.5,0.5C 45.1667,0.5 47.8333,0.5 50.5,0.5 Z"/></g>
<g><path style="opacity:0.852" fill="#323232" d="M 58.5,-0.5 C 59.5,-0.5 60.5,-0.5 61.5,-0.5C 62.6439,11.0907 62.8106,22.7574 62,34.5C 60.6765,42.4794 59.3431,42.4794 58,34.5C 57.1894,22.7574 57.3561,11.0907 58.5,-0.5 Z"/></g>
<g><path style="opacity:0.873" fill="#323232" d="M 79.5,-0.5 C 80.1667,-0.5 80.8333,-0.5 81.5,-0.5C 83.7159,2.91199 84.0492,6.57866 82.5,10.5C 83.3467,11.8448 84.5134,12.8448 86,13.5C 85.3018,21.9902 87.4685,29.8235 92.5,37C 91.0863,38.5484 89.4196,39.215 87.5,39C 85.068,34.5267 82.7347,30.0267 80.5,25.5C 78.8508,29.4639 76.6841,33.1306 74,36.5C 73.3802,41.6162 71.2135,45.9496 67.5,49.5C 66.6919,49.1924 66.0253,48.6924 65.5,48C 68.4298,39.2157 71.7631,30.549 75.5,22C 73.3192,16.8601 74.6525,13.0268 79.5,10.5C 76.9255,6.79393 76.9255,3.12726 79.5,-0.5 Z"/></g>
<g><path style="opacity:0.82" fill="#323232" d="M 91.5,39.5 C 92.3764,39.3691 93.0431,39.7025 93.5,40.5C 94.6005,42.6416 95.6005,44.8083 96.5,47C 95.0726,49.3692 93.2393,49.8692 91,48.5C 90.4427,46.3853 89.6094,44.3853 88.5,42.5C 89.3398,41.265 90.3398,40.265 91.5,39.5 Z"/></g>
</svg>
